<?xml version="1.0" encoding="UTF-8"?>
<svg xmlns="http://www.w3.org/2000/svg" viewBox="0 0 600 600">
  <defs>
    <radialGradient id="bg" cx="0.5" cy="0.3" r="0.9">
      <stop offset="0%" stop-color="#fff3e0"/>
      <stop offset="100%" stop-color="#f8bbd0"/>
    </radialGradient>
    <linearGradient id="dress" x1="0" y1="0" x2="0" y2="1">
      <stop offset="0%" stop-color="#f8bbd0"/>
      <stop offset="50%" stop-color="#ec407a"/>
      <stop offset="100%" stop-color="#ad1457"/>
    </linearGradient>
  </defs>
  <rect width="600" height="600" fill="url(#bg)"/>
  <!-- Background sparkles -->
  <text x="60" y="100" font-size="36" fill="#ffd54f">✨</text>
  <text x="510" y="120" font-size="32" fill="#ffd54f">✨</text>
  <text x="40" y="280" font-size="26" fill="#fff59d">✦</text>
  <text x="540" y="300" font-size="28" fill="#fff59d">✦</text>
  <text x="80" y="450" font-size="22" fill="#fff">✧</text>
  <text x="520" y="470" font-size="24" fill="#fff">✧</text>
  <!-- Hearts -->
  <path d="M 90 200 C 90 192 100 184 113 192 C 126 184 136 192 136 200 C 136 213 113 230 113 230 C 113 230 90 213 90 200 Z" fill="#e91e63" opacity="0.7"/>
  <path d="M 460 240 C 460 232 470 224 483 232 C 496 224 506 232 506 240 C 506 253 483 270 483 270 C 483 270 460 253 460 240 Z" fill="#ec407a" opacity="0.7"/>
  <!-- Crown -->
  <path d="M 240 130 L 270 90 L 290 120 L 310 80 L 330 120 L 350 90 L 380 130 Z" fill="#ffd54f" stroke="#f57f17" stroke-width="2"/>
  <circle cx="270" cy="98" r="6" fill="#e91e63"/>
  <circle cx="310" cy="92" r="8" fill="#42a5f5"/>
  <circle cx="350" cy="98" r="6" fill="#9c27b0"/>
  <!-- Hair (long, golden) -->
  <ellipse cx="280" cy="200" rx="50" ry="40" fill="#fff59d"/>
  <ellipse cx="340" cy="200" rx="50" ry="40" fill="#fff59d"/>
  <path d="M 230 180 Q 200 260 220 340 L 250 340 Q 240 260 260 200 Z" fill="#fff59d"/>
  <path d="M 390 180 Q 420 260 400 340 L 370 340 Q 380 260 360 200 Z" fill="#fff59d"/>
  <!-- Face -->
  <ellipse cx="310" cy="200" rx="56" ry="68" fill="#ffe0b2"/>
  <!-- Eyes -->
  <ellipse cx="288" cy="200" rx="6" ry="9" fill="#1a1a1a"/>
  <ellipse cx="332" cy="200" rx="6" ry="9" fill="#1a1a1a"/>
  <circle cx="290" cy="196" r="2" fill="#ffffff"/>
  <circle cx="334" cy="196" r="2" fill="#ffffff"/>
  <!-- Eyelashes -->
  <line x1="280" y1="190" x2="276" y2="184" stroke="#1a1a1a" stroke-width="1.5" stroke-linecap="round"/>
  <line x1="296" y1="188" x2="296" y2="180" stroke="#1a1a1a" stroke-width="1.5" stroke-linecap="round"/>
  <line x1="324" y1="188" x2="324" y2="180" stroke="#1a1a1a" stroke-width="1.5" stroke-linecap="round"/>
  <line x1="340" y1="190" x2="344" y2="184" stroke="#1a1a1a" stroke-width="1.5" stroke-linecap="round"/>
  <!-- Cheeks -->
  <ellipse cx="275" cy="225" rx="10" ry="6" fill="#f48fb1" opacity="0.7"/>
  <ellipse cx="345" cy="225" rx="10" ry="6" fill="#f48fb1" opacity="0.7"/>
  <!-- Smile -->
  <path d="M 295 240 Q 310 250 325 240" stroke="#c2185b" stroke-width="3" fill="none" stroke-linecap="round"/>
  <!-- Neck -->
  <rect x="294" y="260" width="32" height="30" fill="#ffe0b2"/>
  <!-- Dress (large ballgown) -->
  <path d="M 280 290 L 340 290 L 440 540 L 180 540 Z" fill="url(#dress)" stroke="#880e4f" stroke-width="3"/>
  <!-- Dress sash -->
  <path d="M 280 300 L 340 300 L 350 330 L 270 330 Z" fill="#f8bbd0" opacity="0.7"/>
  <!-- Dress sparkles -->
  <text x="260" y="400" font-size="22" fill="#fff">✦</text>
  <text x="320" y="430" font-size="22" fill="#fff">✦</text>
  <text x="240" y="480" font-size="20" fill="#fff">✧</text>
  <text x="350" y="490" font-size="20" fill="#fff">✧</text>
  <!-- Arms -->
  <ellipse cx="250" cy="340" rx="16" ry="50" fill="#ffe0b2" transform="rotate(-20 250 340)"/>
  <ellipse cx="370" cy="340" rx="16" ry="50" fill="#ffe0b2" transform="rotate(20 370 340)"/>
  <!-- Hands -->
  <circle cx="230" cy="395" r="12" fill="#ffe0b2"/>
  <circle cx="390" cy="395" r="12" fill="#ffe0b2"/>
</svg>
