<?xml version="1.0" encoding="UTF-8"?>
<svg xmlns="http://www.w3.org/2000/svg" viewBox="0 0 600 600">
  <defs>
    <linearGradient id="bg" x1="0" y1="0" x2="0" y2="1">
      <stop offset="0%" stop-color="#fce4ec"/>
      <stop offset="100%" stop-color="#f8bbd0"/>
    </linearGradient>
  </defs>
  <rect width="600" height="600" fill="url(#bg)"/>
  <!-- Sparkles & hearts -->
  <text x="50" y="80" font-size="32" fill="#ffd54f">✨</text>
  <text x="520" y="80" font-size="28" fill="#ffd54f">✨</text>
  <text x="40" y="280" font-size="24" fill="#fff">✦</text>
  <text x="540" y="280" font-size="26" fill="#fff">✦</text>
  <path d="M 100 150 C 100 142 110 132 124 142 C 138 132 148 142 148 150 C 148 165 124 185 124 185 C 124 185 100 165 100 150 Z" fill="#e91e63" opacity="0.7"/>
  <path d="M 460 150 C 460 142 470 132 484 142 C 498 132 508 142 508 150 C 508 165 484 185 484 185 C 484 185 460 165 460 150 Z" fill="#ec407a" opacity="0.7"/>
  <!-- Table (round, pink) -->
  <ellipse cx="300" cy="430" rx="240" ry="35" fill="#ad1457"/>
  <ellipse cx="300" cy="420" rx="240" ry="35" fill="#ec407a"/>
  <!-- Tablecloth -->
  <path d="M 60 420 L 60 530 Q 60 560 100 560 L 500 560 Q 540 560 540 530 L 540 420 Q 540 440 300 440 Q 60 440 60 420 Z" fill="#f8bbd0" stroke="#ad1457" stroke-width="2"/>
  <!-- Lace edge -->
  <path d="M 60 540 Q 80 555 100 540 Q 120 555 140 540 Q 160 555 180 540 Q 200 555 220 540 Q 240 555 260 540 Q 280 555 300 540 Q 320 555 340 540 Q 360 555 380 540 Q 400 555 420 540 Q 440 555 460 540 Q 480 555 500 540 Q 520 555 540 540" fill="none" stroke="#fff" stroke-width="2"/>
  <!-- Teapot in center -->
  <ellipse cx="300" cy="380" rx="80" ry="50" fill="#fff"/>
  <ellipse cx="300" cy="360" rx="80" ry="50" fill="#fff"/>
  <!-- Teapot lid -->
  <ellipse cx="300" cy="310" rx="40" ry="10" fill="#ec407a"/>
  <circle cx="300" cy="300" r="10" fill="#fff59d"/>
  <!-- Teapot spout -->
  <path d="M 380 350 Q 420 340 430 365 Q 425 380 410 380 Q 395 380 380 370 Z" fill="#fff" stroke="#ec407a" stroke-width="2"/>
  <!-- Teapot handle -->
  <path d="M 220 350 Q 180 350 180 380 Q 180 400 210 400" fill="none" stroke="#ec407a" stroke-width="6" stroke-linecap="round"/>
  <!-- Teapot decorations -->
  <path d="M 270 360 C 270 354 278 348 285 354 C 292 348 300 354 300 360 C 300 369 285 380 285 380 C 285 380 270 369 270 360 Z" fill="#ec407a"/>
  <path d="M 310 360 C 310 354 318 348 325 354 C 332 348 340 354 340 360 C 340 369 325 380 325 380 C 325 380 310 369 310 360 Z" fill="#ec407a"/>
  <!-- Steam -->
  <path d="M 295 290 Q 290 280 295 270 Q 300 260 295 250" stroke="#fff" stroke-width="3" fill="none" stroke-linecap="round" opacity="0.8"/>
  <path d="M 305 290 Q 310 280 305 270 Q 300 260 305 250" stroke="#fff" stroke-width="3" fill="none" stroke-linecap="round" opacity="0.8"/>
  <!-- Cupcake left -->
  <path d="M 100 400 L 90 460 L 170 460 L 160 400 Z" fill="#fff59d" stroke="#f57f17" stroke-width="2"/>
  <path d="M 90 400 Q 100 380 115 395 Q 130 380 145 395 Q 160 380 170 400 Z" fill="#fff"/>
  <circle cx="105" cy="385" r="4" fill="#e91e63"/>
  <circle cx="130" cy="380" r="5" fill="#9c27b0"/>
  <circle cx="155" cy="385" r="4" fill="#42a5f5"/>
  <!-- Cupcake right -->
  <path d="M 440 400 L 430 460 L 510 460 L 500 400 Z" fill="#fff59d" stroke="#f57f17" stroke-width="2"/>
  <path d="M 430 400 Q 440 380 455 395 Q 470 380 485 395 Q 500 380 510 400 Z" fill="#fff"/>
  <circle cx="445" cy="385" r="4" fill="#42a5f5"/>
  <circle cx="470" cy="380" r="5" fill="#e91e63"/>
  <circle cx="495" cy="385" r="4" fill="#66bb6a"/>
  <!-- Donut decoration -->
  <circle cx="200" cy="430" r="22" fill="#fff"/>
  <circle cx="200" cy="430" r="22" fill="none" stroke="#ec407a" stroke-width="6"/>
  <circle cx="200" cy="430" r="8" fill="#f8bbd0"/>
  <circle cx="190" cy="420" r="2" fill="#9c27b0"/>
  <circle cx="210" cy="425" r="2" fill="#42a5f5"/>
  <circle cx="200" cy="440" r="2" fill="#66bb6a"/>
  <!-- Cherry on top of teapot -->
  <circle cx="300" cy="290" r="6" fill="#e53935"/>
  <path d="M 300 285 Q 305 270 312 275" stroke="#388e3c" stroke-width="2" fill="none"/>
</svg>
